# xmcd
#
# Track frame offsets:
#	150
#	11933
#	24165
#	37735
#	54088
#	74403
#	88950
#	103655
#	117443
#	139288
#
# Disc length: 2032 seconds
#
# Revision: 2
# Processed by: cddbd v1.4PL0 Copyright (c) Steve Scherf et al.
# Submitted via: audiograbber 1.80
#
DISCID=8207ee0a
DTITLE=Various Artist - 30 Years of #1 Hits Vol. 11
DYEAR=1900
DGENRE=
TTITLE0=Willie Nelson - On The Road Again
TTITLE1=Charlie Rich - Rollin' With The Flow
TTITLE2=Ricky Skaggs - Crying My Heart Out Over You
TTITLE3=Mickey Gilley - Stand By Me
TTITLE4=Rosanne Cash - Blue Moon With Heartache
TTITLE5=Charlie Rich - On My Knees
TTITLE6=Crystal Gayle - If You Ever Change Your Mind
TTITLE7=George Jones and Tammy Wynette - Golden Ring
TTITLE8=Merle Haggard - Going Where The Lonely Go
TTITLE9=Mickey Gilley - True Love Ways
EXTD=
EXTT0=Willie Nelson
EXTT1=Charlie Rich
EXTT2=Ricky Skaggs
EXTT3=Mickey Gilley
EXTT4=Rosanne Cash
EXTT5=Charlie Rich
EXTT6=Crystal Gayle
EXTT7=George Jones and Tammy Wynette
EXTT8=Merle Haggard
EXTT9=Mickey Gilley
PLAYORDER=
